<?xml version="1.0" encoding="UTF-8" ?>
<!DOCTYPE svg PUBLIC "-//W3C//DTD SVG 1.1//EN" "http://www.w3.org/Graphics/SVG/1.1/DTD/svg11.dtd">
<svg width="500pt" height="500pt" viewBox="0 0 500 500" version="1.1" xmlns="http://www.w3.org/2000/svg">
<g id="#ff3131ff">
</g>
<g id="#2ec2c1ff">
<path fill="#2ec2c1" opacity="1.00" d=" M 166.72 53.78 C 205.76 36.39 250.14 31.15 292.13 39.22 C 308.72 42.56 325.10 47.39 340.47 54.54 C 387.19 75.91 425.66 114.83 446.27 161.91 C 442.67 161.89 439.07 161.88 435.48 161.95 C 430.99 183.33 426.56 204.73 422.04 226.11 C 416.83 204.73 411.71 183.32 406.51 161.94 C 398.10 161.88 389.69 161.89 381.29 161.93 C 375.84 183.68 370.53 205.46 365.08 227.21 C 359.88 205.49 354.50 183.80 349.41 162.04 C 341.44 161.74 333.46 161.97 325.49 161.92 C 334.07 192.27 342.69 222.62 351.29 252.97 C 359.79 253.03 368.30 253.01 376.81 252.98 C 382.08 233.80 387.35 214.62 392.58 195.43 C 397.89 214.61 403.19 233.79 408.48 252.97 C 416.99 253.03 425.50 252.99 434.01 252.99 C 440.63 229.31 447.25 205.64 453.83 181.95 C 466.47 220.55 467.74 262.89 457.11 302.12 C 457.20 285.05 444.13 269.35 427.65 265.51 C 418.99 263.47 409.65 263.91 401.35 267.21 C 389.71 271.90 380.38 282.38 377.80 294.75 C 375.74 304.90 376.69 315.99 381.97 325.05 C 387.00 333.66 395.35 340.36 404.95 343.13 C 419.20 347.28 435.93 343.88 446.19 332.79 C 438.71 350.35 428.29 366.54 416.27 381.33 C 390.25 413.35 354.47 437.35 315.01 449.39 C 276.65 461.36 234.76 461.82 196.05 451.17 C 161.93 441.80 130.45 423.49 105.05 398.90 C 88.94 382.85 75.03 364.45 64.62 344.20 C 72.56 345.32 81.06 345.14 88.38 341.51 C 95.49 337.99 101.38 331.12 102.10 323.00 C 102.91 316.11 100.53 308.39 94.51 304.47 C 86.84 299.28 77.34 298.52 68.97 295.00 C 64.73 293.32 62.29 288.41 63.84 284.06 C 65.88 278.63 74.31 277.95 77.81 282.27 C 79.28 283.96 79.67 286.24 80.31 288.32 C 87.21 288.34 94.12 288.34 101.03 288.31 C 100.86 281.76 98.83 274.74 93.46 270.56 C 85.85 264.59 75.53 263.56 66.22 264.69 C 56.60 265.90 46.90 271.93 44.04 281.62 C 41.41 266.54 41.00 251.18 41.25 235.90 C 41.82 227.61 42.41 219.26 44.17 211.12 C 44.99 222.32 49.71 233.28 58.02 240.95 C 69.32 252.11 86.58 256.25 101.87 252.44 C 117.09 248.67 129.58 236.03 133.85 221.05 C 134.98 214.79 134.12 208.35 134.36 202.02 C 117.81 202.01 101.26 202.00 84.72 202.02 C 84.70 207.65 84.70 213.27 84.72 218.90 C 93.29 218.94 101.87 218.86 110.44 218.94 C 108.79 224.96 104.41 230.39 98.30 232.24 C 90.29 234.60 80.76 233.33 74.53 227.46 C 69.68 223.00 67.26 216.45 66.87 209.97 C 66.31 202.33 67.92 194.04 73.27 188.26 C 78.96 181.87 88.40 179.89 96.53 181.70 C 101.56 182.80 105.41 186.63 107.88 190.98 C 116.71 191.01 125.54 191.02 134.37 190.98 C 130.68 179.22 121.76 169.34 110.41 164.54 C 100.28 160.13 88.67 159.54 78.01 162.21 C 67.35 164.91 58.02 171.84 51.75 180.80 C 69.76 124.71 113.04 77.72 166.72 53.78 M 264.44 161.60 C 251.14 164.16 239.32 173.10 233.00 185.03 C 227.73 195.08 226.86 206.99 228.95 218.01 C 231.66 231.85 241.63 243.74 254.31 249.66 C 263.51 253.95 274.06 254.80 284.00 253.10 C 297.40 250.78 309.34 241.86 315.81 229.96 C 321.36 219.66 322.30 207.34 320.03 196.00 C 317.06 181.43 306.04 169.04 292.25 163.72 C 283.43 160.37 273.67 159.85 264.44 161.60 M 147.43 161.95 C 147.42 192.29 147.45 222.63 147.41 252.97 C 154.84 253.03 162.28 253.01 169.71 252.98 C 169.70 241.18 169.69 229.39 169.71 217.59 C 170.32 217.62 171.55 217.68 172.16 217.71 C 179.17 229.37 185.80 241.28 192.72 253.01 C 201.39 252.99 210.06 253.00 218.73 253.00 C 211.32 240.65 203.90 228.31 196.48 215.97 C 201.73 214.33 206.93 211.81 210.49 207.48 C 215.08 201.76 217.60 194.26 216.74 186.91 C 216.03 178.71 210.89 171.33 204.02 167.01 C 197.78 163.09 190.27 161.89 183.02 161.92 C 171.15 161.91 159.29 161.85 147.43 161.95 M 111.08 265.35 C 110.93 270.22 111.03 275.10 111.02 279.98 C 118.12 280.01 125.23 279.97 132.34 280.00 C 132.36 301.32 132.36 322.65 132.34 343.97 C 138.76 344.02 145.18 344.02 151.60 343.97 C 151.58 322.65 151.58 301.32 151.60 280.00 C 158.75 279.97 165.89 280.01 173.04 279.98 C 173.06 275.12 173.07 270.25 173.03 265.39 C 152.38 265.35 131.73 265.43 111.08 265.35 M 183.28 265.39 C 183.26 280.94 183.27 296.49 183.27 312.04 C 183.21 319.26 184.83 326.77 189.29 332.59 C 195.30 340.46 205.22 344.82 215.03 344.79 C 224.89 344.98 235.37 341.62 241.74 333.77 C 246.70 328.05 249.15 320.47 249.14 312.95 C 249.26 297.16 249.07 281.36 249.24 265.57 C 242.85 265.12 236.42 265.52 230.02 265.37 C 229.88 280.91 230.03 296.46 229.94 312.00 C 229.88 315.97 229.13 320.28 226.23 323.21 C 222.12 327.35 215.45 327.69 210.17 325.93 C 204.90 324.10 202.45 318.23 202.55 313.00 C 202.46 297.13 202.55 281.26 202.51 265.39 C 196.10 265.37 189.69 265.38 183.28 265.39 M 264.57 265.41 C 264.59 291.61 264.56 317.80 264.58 343.99 C 275.41 343.91 286.24 344.20 297.06 343.82 C 311.61 343.04 326.00 334.52 332.03 320.98 C 335.83 312.25 336.20 302.17 333.73 293.03 C 330.66 281.91 321.69 273.02 311.12 268.79 C 304.74 266.22 297.81 265.32 290.97 265.38 C 282.17 265.40 273.37 265.34 264.57 265.41 M 346.35 265.39 C 346.31 291.59 346.36 317.78 346.33 343.98 C 352.75 344.01 359.18 344.04 365.61 343.96 C 365.55 317.77 365.61 291.58 365.58 265.39 C 359.17 265.37 352.76 265.38 346.35 265.39 Z" />
<path fill="#2ec2c1" opacity="1.00" d=" M 169.72 178.84 C 174.84 178.90 179.97 178.65 185.09 178.97 C 190.48 179.40 194.56 184.63 194.25 189.93 C 194.54 194.96 190.79 199.97 185.65 200.47 C 180.34 200.86 175.01 200.59 169.69 200.63 C 169.73 193.36 169.68 186.10 169.72 178.84 Z" />
<path fill="#2ec2c1" opacity="1.00" d=" M 271.25 181.24 C 278.42 180.39 286.26 182.22 291.39 187.54 C 296.75 192.86 298.78 200.66 298.52 208.04 C 298.52 215.24 296.07 222.75 290.58 227.64 C 284.30 233.46 274.80 234.50 266.80 232.30 C 258.93 230.11 253.05 223.05 251.39 215.18 C 249.68 206.85 250.29 197.46 255.34 190.34 C 258.94 185.11 264.96 181.81 271.25 181.24 Z" />
<path fill="#2ec2c1" opacity="1.00" d=" M 283.82 280.01 C 291.33 279.98 299.62 279.29 306.10 283.86 C 313.60 288.84 316.37 298.43 315.64 307.04 C 315.41 315.02 311.29 323.19 303.97 326.86 C 297.77 330.14 290.57 329.31 283.82 329.38 C 283.81 312.92 283.81 296.47 283.82 280.01 Z" />
<path fill="#2ec2c1" opacity="1.00" d=" M 410.51 282.80 C 417.65 280.85 426.15 282.02 431.50 287.47 C 436.65 292.47 438.18 300.06 437.63 306.99 C 437.33 312.55 435.19 318.15 431.04 321.96 C 425.33 327.33 416.50 328.24 409.28 325.78 C 402.51 323.45 397.84 316.91 396.79 309.97 C 395.93 304.19 396.20 298.01 398.81 292.69 C 401.11 287.96 405.42 284.21 410.51 282.80 Z" />
<path fill="#2ec2c1" opacity="1.00" d=" M 48.35 302.11 C 52.57 306.76 59.05 308.44 64.85 310.32 C 69.89 311.93 75.60 312.63 79.67 316.31 C 83.45 319.69 82.49 326.74 77.73 328.73 C 74.18 330.13 69.57 330.03 66.58 327.41 C 64.50 325.60 64.10 322.75 63.48 320.23 C 60.34 320.23 57.20 320.23 54.07 320.21 C 51.96 314.24 50.01 308.21 48.35 302.11 Z" />
</g>
<g id="#ffffffff">
<path fill="#ffffff" opacity="1.00" d=" M 78.01 162.21 C 88.67 159.54 100.28 160.13 110.41 164.54 C 121.76 169.34 130.68 179.22 134.37 190.98 C 125.54 191.02 116.71 191.01 107.88 190.98 C 105.41 186.63 101.56 182.80 96.53 181.70 C 88.40 179.89 78.96 181.87 73.27 188.26 C 67.92 194.04 66.31 202.33 66.87 209.97 C 67.26 216.45 69.68 223.00 74.53 227.46 C 80.76 233.33 90.29 234.60 98.30 232.24 C 104.41 230.39 108.79 224.96 110.44 218.94 C 101.87 218.86 93.29 218.94 84.72 218.90 C 84.70 213.27 84.70 207.65 84.72 202.02 C 101.26 202.00 117.81 202.01 134.36 202.02 C 134.12 208.35 134.98 214.79 133.85 221.05 C 129.58 236.03 117.09 248.67 101.87 252.44 C 86.58 256.25 69.32 252.11 58.02 240.95 C 49.71 233.28 44.99 222.32 44.17 211.12 C 45.73 200.82 48.31 190.62 51.75 180.80 C 58.02 171.84 67.35 164.91 78.01 162.21 Z" />
<path fill="#ffffff" opacity="1.00" d=" M 264.44 161.60 C 273.67 159.85 283.43 160.37 292.25 163.72 C 306.04 169.04 317.06 181.43 320.03 196.00 C 322.30 207.34 321.36 219.66 315.81 229.96 C 309.34 241.86 297.40 250.78 284.00 253.10 C 274.06 254.80 263.51 253.95 254.31 249.66 C 241.63 243.74 231.66 231.85 228.95 218.01 C 226.86 206.99 227.73 195.08 233.00 185.03 C 239.32 173.10 251.14 164.16 264.44 161.60 M 271.25 181.24 C 264.96 181.81 258.94 185.11 255.34 190.34 C 250.29 197.46 249.68 206.85 251.39 215.18 C 253.05 223.05 258.93 230.11 266.80 232.30 C 274.80 234.50 284.30 233.46 290.58 227.64 C 296.07 222.75 298.52 215.24 298.52 208.04 C 298.78 200.66 296.75 192.86 291.39 187.54 C 286.26 182.22 278.42 180.39 271.25 181.24 Z" />
<path fill="#ffffff" opacity="1.00" d=" M 147.43 161.95 C 159.29 161.85 171.15 161.91 183.02 161.92 C 190.27 161.89 197.78 163.09 204.02 167.01 C 210.89 171.33 216.03 178.71 216.74 186.91 C 217.60 194.26 215.08 201.76 210.49 207.48 C 206.93 211.81 201.73 214.33 196.48 215.97 C 203.90 228.31 211.32 240.65 218.73 253.00 C 210.06 253.00 201.39 252.99 192.72 253.01 C 185.80 241.28 179.17 229.37 172.16 217.71 C 171.55 217.68 170.32 217.62 169.71 217.59 C 169.69 229.39 169.70 241.18 169.71 252.98 C 162.28 253.01 154.84 253.03 147.41 252.97 C 147.45 222.63 147.42 192.29 147.43 161.95 M 169.72 178.84 C 169.68 186.10 169.73 193.36 169.69 200.63 C 175.01 200.59 180.34 200.86 185.65 200.47 C 190.79 199.97 194.54 194.96 194.25 189.93 C 194.56 184.63 190.48 179.40 185.09 178.97 C 179.97 178.65 174.84 178.90 169.72 178.84 Z" />
<path fill="#ffffff" opacity="1.00" d=" M 325.49 161.92 C 333.46 161.97 341.44 161.74 349.41 162.04 C 354.50 183.80 359.88 205.49 365.08 227.21 C 370.53 205.46 375.84 183.68 381.29 161.93 C 389.69 161.89 398.10 161.88 406.51 161.94 C 411.71 183.32 416.83 204.73 422.04 226.11 C 426.56 204.73 430.99 183.33 435.48 161.95 C 439.07 161.88 442.67 161.89 446.27 161.91 C 449.13 168.45 451.86 175.08 453.83 181.95 C 447.25 205.64 440.63 229.31 434.01 252.99 C 425.50 252.99 416.99 253.03 408.48 252.97 C 403.19 233.79 397.89 214.61 392.58 195.43 C 387.35 214.62 382.08 233.80 376.81 252.98 C 368.30 253.01 359.79 253.03 351.29 252.97 C 342.69 222.62 334.07 192.27 325.49 161.92 Z" />
<path fill="#ffffff" opacity="1.00" d=" M 44.04 281.62 C 46.90 271.93 56.60 265.90 66.22 264.69 C 75.53 263.56 85.85 264.59 93.46 270.56 C 98.83 274.74 100.86 281.76 101.03 288.31 C 94.12 288.34 87.21 288.34 80.31 288.32 C 79.67 286.24 79.28 283.96 77.81 282.27 C 74.31 277.95 65.88 278.63 63.84 284.06 C 62.29 288.41 64.73 293.32 68.97 295.00 C 77.34 298.52 86.84 299.28 94.51 304.47 C 100.53 308.39 102.91 316.11 102.10 323.00 C 101.38 331.12 95.49 337.99 88.38 341.51 C 81.06 345.14 72.56 345.32 64.62 344.20 C 60.63 336.42 57.09 328.41 54.07 320.21 C 57.20 320.23 60.34 320.23 63.48 320.23 C 64.10 322.75 64.50 325.60 66.58 327.41 C 69.57 330.03 74.18 330.13 77.73 328.73 C 82.49 326.74 83.45 319.69 79.67 316.31 C 75.60 312.63 69.89 311.93 64.85 310.32 C 59.05 308.44 52.57 306.76 48.35 302.11 C 46.61 295.35 45.04 288.53 44.04 281.62 Z" />
<path fill="#ffffff" opacity="1.00" d=" M 401.35 267.21 C 409.65 263.91 418.99 263.47 427.65 265.51 C 444.13 269.35 457.20 285.05 457.11 302.12 C 454.23 312.58 450.77 322.95 446.19 332.79 C 435.93 343.88 419.20 347.28 404.95 343.13 C 395.35 340.36 387.00 333.66 381.97 325.05 C 376.69 315.99 375.74 304.90 377.80 294.75 C 380.38 282.38 389.71 271.90 401.35 267.21 M 410.51 282.80 C 405.42 284.21 401.11 287.96 398.81 292.69 C 396.20 298.01 395.93 304.19 396.79 309.97 C 397.84 316.91 402.51 323.45 409.28 325.78 C 416.50 328.24 425.33 327.33 431.04 321.96 C 435.19 318.15 437.33 312.55 437.63 306.99 C 438.18 300.06 436.65 292.47 431.50 287.47 C 426.15 282.02 417.65 280.85 410.51 282.80 Z" />
<path fill="#ffffff" opacity="1.00" d=" M 111.08 265.35 C 131.73 265.43 152.38 265.35 173.03 265.39 C 173.07 270.25 173.06 275.12 173.04 279.98 C 165.89 280.01 158.75 279.97 151.60 280.00 C 151.58 301.32 151.58 322.65 151.60 343.97 C 145.18 344.02 138.76 344.02 132.34 343.97 C 132.36 322.65 132.36 301.32 132.34 280.00 C 125.23 279.97 118.12 280.01 111.02 279.98 C 111.03 275.10 110.93 270.22 111.08 265.35 Z" />
<path fill="#ffffff" opacity="1.00" d=" M 183.28 265.39 C 189.69 265.38 196.10 265.37 202.51 265.39 C 202.55 281.26 202.46 297.13 202.55 313.00 C 202.45 318.23 204.90 324.10 210.17 325.93 C 215.45 327.69 222.12 327.35 226.23 323.21 C 229.13 320.28 229.88 315.97 229.94 312.00 C 230.03 296.46 229.88 280.91 230.02 265.37 C 236.42 265.52 242.85 265.12 249.24 265.57 C 249.07 281.36 249.26 297.16 249.14 312.95 C 249.15 320.47 246.70 328.05 241.74 333.77 C 235.37 341.62 224.89 344.98 215.03 344.79 C 205.22 344.82 195.30 340.46 189.29 332.59 C 184.83 326.77 183.21 319.26 183.27 312.04 C 183.27 296.49 183.26 280.94 183.28 265.39 Z" />
<path fill="#ffffff" opacity="1.00" d=" M 264.57 265.41 C 273.37 265.34 282.17 265.40 290.97 265.38 C 297.81 265.32 304.74 266.22 311.12 268.79 C 321.69 273.02 330.66 281.91 333.73 293.03 C 336.20 302.17 335.83 312.25 332.03 320.98 C 326.00 334.52 311.61 343.04 297.06 343.82 C 286.24 344.20 275.41 343.91 264.58 343.99 C 264.56 317.80 264.59 291.61 264.57 265.41 M 283.82 280.01 C 283.81 296.47 283.81 312.92 283.82 329.38 C 290.57 329.31 297.77 330.14 303.97 326.86 C 311.29 323.19 315.41 315.02 315.64 307.04 C 316.37 298.43 313.60 288.84 306.10 283.86 C 299.62 279.29 291.33 279.98 283.82 280.01 Z" />
<path fill="#ffffff" opacity="1.00" d=" M 346.35 265.39 C 352.76 265.38 359.17 265.37 365.58 265.39 C 365.61 291.58 365.55 317.77 365.61 343.96 C 359.18 344.04 352.75 344.01 346.33 343.98 C 346.36 317.78 346.31 291.59 346.35 265.39 Z" />
</g>
</svg>
